<svg id="visual" viewBox="0 0 1440 850" width="1440" height="850" xmlns="http://www.w3.org/2000/svg" xmlns:xlink="http://www.w3.org/1999/xlink" version="1.1"><path d="M0 658L20 653.5C40 649 80 640 120 640.8C160 641.7 200 652.3 240 657.2C280 662 320 661 360 661.2C400 661.3 440 662.7 480 661C520 659.3 560 654.7 600 649.3C640 644 680 638 720 639.3C760 640.7 800 649.3 840 649.7C880 650 920 642 960 637.8C1000 633.7 1040 633.3 1080 639.8C1120 646.3 1160 659.7 1200 660.7C1240 661.7 1280 650.3 1320 650.3C1360 650.3 1400 661.7 1420 667.3L1440 673L1440 851L1420 851C1400 851 1360 851 1320 851C1280 851 1240 851 1200 851C1160 851 1120 851 1080 851C1040 851 1000 851 960 851C920 851 880 851 840 851C800 851 760 851 720 851C680 851 640 851 600 851C560 851 520 851 480 851C440 851 400 851 360 851C320 851 280 851 240 851C200 851 160 851 120 851C80 851 40 851 20 851L0 851Z" fill="#b3e3ff"></path><path d="M0 692L20 693.8C40 695.7 80 699.3 120 697.7C160 696 200 689 240 685.3C280 681.7 320 681.3 360 685C400 688.7 440 696.3 480 698C520 699.7 560 695.3 600 696.5C640 697.7 680 704.3 720 706.3C760 708.3 800 705.7 840 702C880 698.3 920 693.7 960 690.5C1000 687.3 1040 685.7 1080 690C1120 694.3 1160 704.7 1200 708.7C1240 712.7 1280 710.3 1320 709C1360 707.7 1400 707.3 1420 707.2L1440 707L1440 851L1420 851C1400 851 1360 851 1320 851C1280 851 1240 851 1200 851C1160 851 1120 851 1080 851C1040 851 1000 851 960 851C920 851 880 851 840 851C800 851 760 851 720 851C680 851 640 851 600 851C560 851 520 851 480 851C440 851 400 851 360 851C320 851 280 851 240 851C200 851 160 851 120 851C80 851 40 851 20 851L0 851Z" fill="#85ceff"></path><path d="M0 761L20 762.2C40 763.3 80 765.7 120 765.7C160 765.7 200 763.3 240 762C280 760.7 320 760.3 360 760.8C400 761.3 440 762.7 480 758.7C520 754.7 560 745.3 600 742C640 738.7 680 741.3 720 747C760 752.7 800 761.3 840 765C880 768.7 920 767.3 960 766C1000 764.7 1040 763.3 1080 758.2C1120 753 1160 744 1200 744.3C1240 744.7 1280 754.3 1320 755.5C1360 756.7 1400 749.3 1420 745.7L1440 742L1440 851L1420 851C1400 851 1360 851 1320 851C1280 851 1240 851 1200 851C1160 851 1120 851 1080 851C1040 851 1000 851 960 851C920 851 880 851 840 851C800 851 760 851 720 851C680 851 640 851 600 851C560 851 520 851 480 851C440 851 400 851 360 851C320 851 280 851 240 851C200 851 160 851 120 851C80 851 40 851 20 851L0 851Z" fill="#54b8ff"></path><path d="M0 780L20 781.3C40 782.7 80 785.3 120 789.2C160 793 200 798 240 802.5C280 807 320 811 360 812.3C400 813.7 440 812.3 480 812.8C520 813.3 560 815.7 600 815.8C640 816 680 814 720 807.7C760 801.3 800 790.7 840 786.2C880 781.7 920 783.3 960 788C1000 792.7 1040 800.3 1080 804.3C1120 808.3 1160 808.7 1200 804.7C1240 800.7 1280 792.3 1320 788.7C1360 785 1400 786 1420 786.5L1440 787L1440 851L1420 851C1400 851 1360 851 1320 851C1280 851 1240 851 1200 851C1160 851 1120 851 1080 851C1040 851 1000 851 960 851C920 851 880 851 840 851C800 851 760 851 720 851C680 851 640 851 600 851C560 851 520 851 480 851C440 851 400 851 360 851C320 851 280 851 240 851C200 851 160 851 120 851C80 851 40 851 20 851L0 851Z" fill="#00a0ff"></path></svg>