<svg width="0" height="0" class="hidden">
  <symbol fill="none" xmlns="http://www.w3.org/2000/svg" viewBox="0 0 24 24" id="Meatballs_menu">
    <circle cx="12" cy="12" r="1" stroke="#33363F" stroke-width="2" stroke-linecap="round"></circle>
    <circle cx="6" cy="12" r="1" stroke="#33363F" stroke-width="2" stroke-linecap="round"></circle>
    <circle cx="18" cy="12" r="1" stroke="#33363F" stroke-width="2" stroke-linecap="round"></circle>
  </symbol>
  <symbol fill="none" xmlns="http://www.w3.org/2000/svg" viewBox="0 0 24 24" id="Question">
    <circle cx="12" cy="12" r="9" stroke="#33363F" stroke-width="2"></circle>
    <circle cx="12" cy="18" r="0.5" fill="#33363F" stroke="#33363F"></circle>
    <path d="M12 16V14.5811C12 13.6369 12.6042 12.7986 13.5 12.5V12.5C14.3958 12.2014 15 11.3631 15 10.4189V9.90569C15 8.30092 13.6991 7 12.0943 7H12C10.3431 7 9 8.34315 9 10V10" stroke="#33363F" stroke-width="2"></path>
  </symbol>
  <symbol fill="none" xmlns="http://www.w3.org/2000/svg" viewBox="0 0 24 24" id="Search_alt">
    <circle cx="11" cy="11" r="7" stroke="#33363F" stroke-width="2"></circle>
    <path d="M11 8C10.606 8 10.2159 8.0776 9.85195 8.22836C9.48797 8.37913 9.15726 8.6001 8.87868 8.87868C8.6001 9.15726 8.37913 9.48797 8.22836 9.85195C8.0776 10.2159 8 10.606 8 11" stroke="#33363F" stroke-width="2" stroke-linecap="round"></path>
    <path d="M20 20L17 17" stroke="#33363F" stroke-width="2" stroke-linecap="round"></path>
  </symbol>
  <symbol fill="none" xmlns="http://www.w3.org/2000/svg" viewBox="0 0 24 24" id="Send">
    <path transform="translate(-0.8328475952148438, 0.832892894744873)" fill-rule="evenodd" clip-rule="evenodd" d="M18.2978 5.68315C17.9189 5.75055 17.3817 5.92686 16.5215 6.21358L10.0305 8.37724C9.20312 8.65304 8.61936 8.84795 8.19945 9.01179C7.99178 9.09282 7.84715 9.15754 7.74658 9.2106C7.66139 9.25554 7.63077 9.2803 7.62895 9.28156C7.22309 9.67446 7.22309 10.3255 7.62895 10.7184C7.63077 10.7197 7.66139 10.7444 7.74658 10.7894C7.84715 10.8424 7.99178 10.9072 8.19945 10.9882C8.61936 11.152 9.20312 11.3469 10.0305 11.6227C10.0495 11.6291 10.0683 11.6353 10.087 11.6415C10.3604 11.7325 10.6004 11.8123 10.8214 11.9292C11.3539 12.2108 11.7892 12.6461 12.0708 13.1786C12.1877 13.3996 12.2675 13.6396 12.3585 13.913C12.3647 13.9317 12.3709 13.9505 12.3773 13.9695C12.6531 14.7969 12.848 15.3806 13.0118 15.8005C13.0928 16.0082 13.1576 16.1528 13.2106 16.2534C13.2556 16.3386 13.2803 16.3692 13.2816 16.371C13.6745 16.7769 14.3255 16.7769 14.7184 16.371C14.7197 16.3692 14.7444 16.3386 14.7894 16.2534C14.8424 16.1528 14.9072 16.0082 14.9882 15.8005C15.152 15.3806 15.3469 14.7969 15.6227 13.9695L17.7864 7.4785C18.0731 6.61832 18.2494 6.0811 18.3168 5.70219C18.3182 5.6943 18.3196 5.68663 18.3208 5.67916C18.3134 5.68042 18.3057 5.68175 18.2978 5.68315ZM18.5568 5.66004C18.5566 5.66022 18.5533 5.65995 18.5475 5.65868C18.5541 5.65922 18.557 5.65985 18.5568 5.66004ZM18.3413 5.45245C18.34 5.44671 18.3398 5.44343 18.34 5.44322C18.3401 5.44302 18.3408 5.44588 18.3413 5.45245ZM17.9475 3.71406C18.4985 3.61605 19.253 3.58686 19.8331 4.16691C20.4131 4.74697 20.3839 5.50148 20.2859 6.05247C20.1896 6.5939 19.9632 7.27302 19.7077 8.03931L19.6838 8.11095L17.5201 14.6019L17.5107 14.6301C17.2464 15.423 17.0358 16.0549 16.8514 16.5275C16.6781 16.9717 16.4726 17.4321 16.1631 17.7541C14.9827 18.9825 13.0173 18.9825 11.8369 17.7541C11.5274 17.4321 11.3219 16.9717 11.1486 16.5275C10.9642 16.055 10.7536 15.423 10.4893 14.6303L10.4799 14.6019C10.3595 14.2407 10.3324 14.1694 10.3029 14.1136C10.209 13.9361 10.0639 13.791 9.88637 13.6971C9.83055 13.6676 9.75926 13.6405 9.39806 13.5201L9.36973 13.5107C8.57694 13.2464 7.94503 13.0358 7.47249 12.8514C7.0283 12.6781 6.56794 12.4726 6.24589 12.1631C5.01744 10.9826 5.01744 9.01733 6.24589 7.83686C6.56794 7.52738 7.0283 7.32189 7.47249 7.14859C7.94505 6.96421 8.57699 6.75356 9.36981 6.48929L9.39806 6.47988L15.889 4.31622C15.913 4.30823 15.9369 4.30027 15.9607 4.29234C16.727 4.03683 17.4061 3.81038 17.9475 3.71406Z" fill="#33363F"></path>
  </symbol>
  <symbol fill="none" xmlns="http://www.w3.org/2000/svg" viewBox="0 0 24 24" id="Setting_line">
    <path d="M14.1361 3.36144L15.1312 3.26194L14.1361 3.36144ZM13.9838 2.54161L13.095 3V3L13.9838 2.54161ZM14.4311 4.81793L15.2261 4.21141L15.2261 4.21141L14.4311 4.81793ZM15.3595 5.20248L15.2261 4.21141L15.3595 5.20248ZM16.5979 4.38113L17.2311 5.15509L17.2311 5.15509L16.5979 4.38113ZM17.2853 3.90918L17.5896 4.86175L17.2853 3.90918ZM17.9872 3.94419L18.3848 3.02663L18.3848 3.02663L17.9872 3.94419ZM18.6243 4.4822L17.9172 5.1893L17.9172 5.18931L18.6243 4.4822ZM19.5178 5.37567L20.2249 4.66856L20.2249 4.66856L19.5178 5.37567ZM20.0558 6.01275L20.9733 5.61517L20.9733 5.61516L20.0558 6.01275ZM20.0908 6.71464L21.0434 7.01895L21.0434 7.01894L20.0908 6.71464ZM19.6188 7.4021L18.8449 6.76886L18.8449 6.76886L19.6188 7.4021ZM18.7975 8.64056L17.8064 8.50724L17.8064 8.50725L18.7975 8.64056ZM19.182 9.56893L18.5755 10.364L18.5755 10.364L19.182 9.56893ZM20.6385 9.86385L20.738 8.86882L20.6385 9.86385ZM21.4584 10.0162L21.9168 9.1275L21.9168 9.1275L21.4584 10.0162ZM21.9299 10.5373L22.8599 10.1696L22.8599 10.1696L21.9299 10.5373ZM21.93 13.4626L21 13.095L21 13.095L21.93 13.4626ZM21.4583 13.9838L21.9166 14.8726L21.9166 14.8726L21.4583 13.9838ZM20.6386 14.1361L20.5391 13.1411L20.5065 13.1444L20.4742 13.1497L20.6386 14.1361ZM20.6386 14.1361L20.7381 15.1312L20.7707 15.1279L20.803 15.1225L20.6386 14.1361ZM19.1825 14.4309L18.5762 13.6357L18.5762 13.6357L19.1825 14.4309ZM18.7979 15.3596L17.8068 15.4931V15.4931L18.7979 15.3596ZM19.619 16.5976L18.845 17.2308H18.845L19.619 16.5976ZM20.0908 17.2848L19.1383 17.5892V17.5892L20.0908 17.2848ZM20.0558 17.9869L19.1383 17.5892L19.1383 17.5892L20.0558 17.9869ZM19.5179 18.6238L20.225 19.3309H20.225L19.5179 18.6238ZM18.6243 19.5174L17.9172 18.8102L17.9172 18.8103L18.6243 19.5174ZM17.9873 20.0554L18.3849 20.9729L18.3849 20.9729L17.9873 20.0554ZM17.2854 20.0904L16.981 21.0429L16.981 21.0429L17.2854 20.0904ZM16.5979 19.6184L17.2312 18.8444L17.2226 18.8376L16.5979 19.6184ZM16.5979 19.6184L15.9646 20.3924L15.9732 20.3993L16.5979 19.6184ZM15.3595 18.7971L15.4928 17.806H15.4928L15.3595 18.7971ZM14.4311 19.1816L15.2262 19.7882L15.2262 19.7881L14.4311 19.1816ZM14.1362 20.6383L13.1411 20.5388V20.5388L14.1362 20.6383ZM13.9837 21.4585L13.095 21L13.095 21L13.9837 21.4585ZM13.4628 21.9299L13.095 21L13.095 21L13.4628 21.9299ZM10.5373 21.9299L10.905 21L10.5373 21.9299ZM10.0162 21.4584L10.905 21H10.905L10.0162 21.4584ZM9.86385 20.6385L8.86882 20.7381V20.7381L9.86385 20.6385ZM9.56892 19.182L8.77387 19.7885L8.77387 19.7885L9.56892 19.182ZM8.64057 18.7975L8.50728 17.8064H8.50727L8.64057 18.7975ZM7.40208 19.6189L6.76884 18.8449L6.753 18.8579L6.73771 18.8714L7.40208 19.6189ZM7.40206 19.6189L8.0353 20.3928L8.05113 20.3799L8.06643 20.3663L7.40206 19.6189ZM6.71458 20.0908L7.01887 21.0434H7.01887L6.71458 20.0908ZM6.01272 20.0558L5.61515 20.9734H5.61515L6.01272 20.0558ZM5.37561 19.5178L6.08271 18.8107H6.08271L5.37561 19.5178ZM4.48217 18.6243L3.77506 19.3315L3.77506 19.3315L4.48217 18.6243ZM3.94414 17.9873L4.86171 17.5897L4.86171 17.5897L3.94414 17.9873ZM3.90913 17.2854L4.86171 17.5897L4.86171 17.5897L3.90913 17.2854ZM4.3811 16.5979L5.15506 17.2311H5.15506L4.3811 16.5979ZM5.20247 15.3594L6.19355 15.4928L5.20247 15.3594ZM4.81792 14.4311L5.42445 13.636L5.42445 13.636L4.81792 14.4311ZM3.36143 14.1361L3.26193 15.1312H3.26193L3.36143 14.1361ZM2.54161 13.9838L3 13.095H3L2.54161 13.9838ZM2.07005 13.4627L1.14009 13.8304L1.14009 13.8304L2.07005 13.4627ZM2.07008 10.5372L1.14017 10.1694L1.14017 10.1694L2.07008 10.5372ZM2.54152 10.0163L2.08305 9.12757L2.08305 9.12757L2.54152 10.0163ZM3.36155 9.86384V8.86384H3.31167L3.26205 8.86881L3.36155 9.86384ZM3.36156 9.86384V10.8638H3.41143L3.46106 10.8589L3.36156 9.86384ZM4.81842 9.56881L4.21178 8.77383L4.21177 8.77383L4.81842 9.56881ZM5.20287 8.64066L6.19396 8.50749L6.19396 8.50749L5.20287 8.64066ZM4.38128 7.40182L5.15523 6.76858H5.15523L4.38128 7.40182ZM3.90914 6.71405L4.86175 6.40988L4.86175 6.40988L3.90914 6.71405ZM3.94413 6.01243L3.02651 5.61498L3.02651 5.61498L3.94413 6.01243ZM4.48233 5.37509L5.18944 6.0822H5.18944L4.48233 5.37509ZM5.37565 4.48177L4.66855 3.77466V3.77466L5.37565 4.48177ZM6.01277 3.94373L5.6152 3.02615L5.6152 3.02616L6.01277 3.94373ZM6.71463 3.90872L7.01892 2.95614V2.95614L6.71463 3.90872ZM7.4022 4.38076L8.03543 3.60681V3.60681L7.4022 4.38076ZM8.64044 5.20207L8.77391 4.21101L8.64044 5.20207ZM9.56907 4.81742L8.77391 4.21101L8.77391 4.21101L9.56907 4.81742ZM9.86387 3.36131L10.8589 3.46081V3.46081L9.86387 3.36131ZM10.0162 2.5417L9.12739 2.08341L9.12739 2.08341L10.0162 2.5417ZM10.5374 2.07001L10.905 3L10.905 3L10.5374 2.07001ZM13.4627 2.07005L13.8304 1.1401V1.1401L13.4627 2.07005ZM15.1312 3.26194C15.1108 3.05831 15.0912 2.85693 15.0626 2.6868C15.0324 2.50684 14.9828 2.29705 14.8725 2.08322L13.095 3C13.0721 2.95549 13.0769 2.93878 13.0902 3.01798C13.1052 3.10701 13.1181 3.23089 13.1411 3.46094L15.1312 3.26194ZM15.2261 4.21141C15.2894 4.29433 15.2693 4.33101 15.2342 4.13595C15.2008 3.95045 15.1739 3.68915 15.1312 3.26194L13.1411 3.46094C13.1805 3.85459 13.2152 4.20895 13.2658 4.49017C13.3147 4.76184 13.4009 5.11633 13.636 5.42445L15.2261 4.21141ZM15.2261 4.21141L15.2261 4.21141L13.636 5.42444C14.0718 5.99575 14.7806 6.28935 15.4928 6.19355L15.2261 4.21141ZM15.9646 3.60717C15.6323 3.87905 15.4286 4.04481 15.2738 4.15238C15.1111 4.26548 15.1228 4.22531 15.2261 4.21141L15.4928 6.19355C15.8768 6.14188 16.1885 5.95223 16.4152 5.7947C16.6498 5.63163 16.9249 5.4056 17.2311 5.15509L15.9646 3.60717ZM16.981 2.95661C16.7518 3.02983 16.5684 3.14308 16.4198 3.24897C16.2793 3.34907 16.123 3.47759 15.9646 3.60717L17.2311 5.15509C17.41 5.00869 17.5068 4.93022 17.5803 4.87784C17.6457 4.83124 17.6373 4.84651 17.5896 4.86175L16.981 2.95661ZM18.3848 3.02663C17.9408 2.83421 17.442 2.80934 16.981 2.95661L17.5896 4.86175L17.5896 4.86175L18.3848 3.02663ZM19.3314 3.77509C19.1867 3.6304 19.044 3.48696 18.9142 3.37338C18.7768 3.25323 18.6056 3.12228 18.3848 3.02663L17.5896 4.86175C17.5437 4.84184 17.5369 4.82581 17.5973 4.87869C17.6653 4.93813 17.7537 5.02583 17.9172 5.1893L19.3314 3.77509ZM20.2249 4.66856L19.3314 3.77509L17.9172 5.18931L18.8107 6.08277L20.2249 4.66856ZM20.9733 5.61516C20.8777 5.39441 20.7467 5.22316 20.6266 5.08581C20.513 4.95597 20.3696 4.81326 20.2249 4.66856L18.8106 6.08277C18.9741 6.24626 19.0618 6.33469 19.1213 6.40264C19.1742 6.46308 19.1581 6.45629 19.1382 6.41034L20.9733 5.61516ZM21.0434 7.01894C21.1906 6.55797 21.1658 6.05922 20.9733 5.61517L19.1382 6.41034L19.1382 6.41034L21.0434 7.01894ZM20.3928 8.03534C20.5224 7.87696 20.6509 7.72069 20.751 7.58019C20.8569 7.43156 20.9701 7.24814 21.0434 7.01895L19.1382 6.41033C19.1535 6.36263 19.1687 6.35427 19.1221 6.41968C19.0697 6.4932 18.9913 6.58992 18.8449 6.76886L20.3928 8.03534ZM19.7885 8.77387C19.7746 8.87723 19.7345 8.88894 19.8476 8.72619C19.9551 8.57141 20.1209 8.36764 20.3928 8.03534L18.8449 6.76886C18.5943 7.07506 18.3683 7.35016 18.2052 7.58481C18.0477 7.81148 17.8581 8.12317 17.8064 8.50724L19.7885 8.77387ZM19.7885 8.77387V8.77386L17.8064 8.50725C17.7106 9.21938 18.0042 9.92816 18.5755 10.364L19.7885 8.77387ZM20.738 8.86882C20.3108 8.82609 20.0495 8.79922 19.864 8.76584C19.6689 8.73073 19.7056 8.7106 19.7885 8.77387L18.5755 10.364C18.8836 10.599 19.2381 10.6853 19.5098 10.7342C19.791 10.7848 20.1454 10.8195 20.539 10.8589L20.738 8.86882ZM21.9168 9.1275C21.703 9.01721 21.4932 8.96759 21.3132 8.93737C21.1431 8.9088 20.9417 8.88918 20.738 8.86882L20.539 10.8589C20.7691 10.8819 20.893 10.8948 20.982 10.9098C21.0612 10.9231 21.0445 10.9279 21 10.905L21.9168 9.1275ZM22.8599 10.1696C22.682 9.71957 22.3469 9.34933 21.9168 9.1275L21 10.905L21 10.905L22.8599 10.1696ZM23 11.3682C23 11.1636 23.0005 10.9613 22.989 10.7891C22.9769 10.607 22.9484 10.3933 22.8599 10.1696L21 10.905C20.9816 10.8584 20.9881 10.8423 20.9935 10.9224C20.9995 11.0125 21 11.137 21 11.3682H23ZM23 12.6319V11.3682H21V12.6319H23ZM22.86 13.8302C22.9484 13.6065 22.9769 13.3929 22.989 13.2108C23.0005 13.0388 23 12.8365 23 12.6319H21C21 12.863 20.9995 12.9875 20.9935 13.0776C20.9881 13.1577 20.9816 13.1416 21 13.095L22.86 13.8302ZM21.9166 14.8726C22.3469 14.6507 22.682 14.2804 22.86 13.8302L21 13.095V13.095L21.9166 14.8726ZM20.7381 15.1312C20.9417 15.1108 21.1431 15.0912 21.3132 15.0626C21.4931 15.0324 21.7028 14.9828 21.9166 14.8726L21 13.095C21.0445 13.0721 21.0612 13.077 20.982 13.0902C20.893 13.1052 20.7691 13.1181 20.5391 13.1411L20.7381 15.1312ZM20.803 15.1225L20.803 15.1225L20.4742 13.1497L20.4742 13.1497L20.803 15.1225ZM19.7889 15.2261C19.706 15.2893 19.6693 15.2692 19.8644 15.2341C20.0498 15.2007 20.311 15.1739 20.7381 15.1312L20.5391 13.1411C20.1456 13.1805 19.7913 13.2151 19.5102 13.2657C19.2386 13.3146 18.8842 13.4008 18.5762 13.6357L19.7889 15.2261ZM19.7889 15.2261L19.7889 15.2261L18.5762 13.6357C18.0046 14.0716 17.7108 14.7807 17.8068 15.4931L19.7889 15.2261ZM20.3929 15.9643C20.1212 15.6322 19.9555 15.4285 19.8479 15.2738C19.7348 15.1111 19.775 15.1228 19.7889 15.2261L17.8068 15.4931C17.8585 15.877 18.0481 16.1886 18.2056 16.4152C18.3686 16.6497 18.5946 16.9247 18.845 17.2308L20.3929 15.9643ZM21.0433 16.9803C20.9701 16.7513 20.8569 16.5679 20.751 16.4193C20.651 16.2789 20.5225 16.1227 20.3929 15.9643L18.845 17.2308C18.9914 17.4097 19.0698 17.5064 19.1222 17.5799C19.1688 17.6453 19.1535 17.6369 19.1383 17.5892L21.0433 16.9803ZM20.9733 18.3846C21.1658 17.9404 21.1907 17.4415 21.0433 16.9803L19.1383 17.5892L19.1383 17.5892L20.9733 18.3846ZM20.225 19.3309C20.3697 19.1862 20.5131 19.0436 20.6266 18.9138C20.7467 18.7765 20.8776 18.6053 20.9733 18.3846L19.1383 17.5892C19.1582 17.5433 19.1742 17.5365 19.1213 17.5969C19.0619 17.6648 18.9742 17.7532 18.8108 17.9167L20.225 19.3309ZM19.3314 20.2245L20.225 19.3309L18.8108 17.9167L17.9172 18.8102L19.3314 20.2245ZM18.3849 20.9729C18.6056 20.8773 18.7769 20.7463 18.9142 20.6262C19.044 20.5126 19.1867 20.3692 19.3314 20.2245L17.9172 18.8103C17.7537 18.9737 17.6653 19.0614 17.5974 19.1209C17.5369 19.1737 17.5437 19.1577 17.5897 19.1378L18.3849 20.9729ZM16.981 21.0429C17.442 21.1902 17.9408 21.1653 18.3849 20.9729L17.5897 19.1378H17.5897L16.981 21.0429ZM15.9647 20.3924C16.1231 20.522 16.2793 20.6505 16.4198 20.7506C16.5684 20.8565 16.7519 20.9697 16.981 21.0429L17.5897 19.1378C17.6374 19.153 17.6457 19.1683 17.5803 19.1217C17.5068 19.0693 17.4101 18.9909 17.2312 18.8445L15.9647 20.3924ZM15.9732 20.3993L15.9732 20.3993L17.2226 18.8376L17.2226 18.8375L15.9732 20.3993ZM15.2262 19.7881C15.1228 19.7742 15.1111 19.7341 15.2738 19.8472C15.4286 19.9547 15.6324 20.1205 15.9647 20.3924L17.2311 18.8445C16.925 18.5939 16.6499 18.3679 16.4152 18.2048C16.1886 18.0473 15.8769 17.8577 15.4928 17.806L15.2262 19.7881ZM15.2262 19.7881H15.2262L15.4928 17.806C14.7807 17.7102 14.0719 18.0038 13.636 18.5751L15.2262 19.7881ZM15.1312 20.7378C15.1739 20.3105 15.2008 20.0492 15.2342 19.8636C15.2693 19.6685 15.2894 19.7052 15.2262 19.7882L13.636 18.5751C13.401 18.8832 13.3147 19.2378 13.2658 19.5094C13.2152 19.7907 13.1805 20.1451 13.1411 20.5388L15.1312 20.7378ZM14.8724 21.917C14.9828 21.7031 15.0324 21.4932 15.0626 21.3132C15.0912 21.143 15.1108 20.9415 15.1312 20.7378L13.1411 20.5388C13.1181 20.769 13.1052 20.8929 13.0902 20.982C13.0769 21.0612 13.072 21.0445 13.095 21L14.8724 21.917ZM13.8306 22.8598C14.2805 22.6819 14.6506 22.3469 14.8724 21.917L13.095 21L13.095 21L13.8306 22.8598ZM12.6316 23C12.8363 23 13.0387 23.0005 13.2109 22.989C13.393 22.9768 13.6068 22.9483 13.8306 22.8598L13.095 21C13.1416 20.9816 13.1577 20.9881 13.0776 20.9935C12.9875 20.9995 12.8629 21 12.6316 21V23ZM11.3682 23H12.6316V21H11.3682V23ZM10.1696 22.8599C10.3933 22.9484 10.607 22.9769 10.7891 22.989C10.9613 23.0005 11.1636 23 11.3682 23V21C11.137 21 11.0125 20.9995 10.9224 20.9935C10.8423 20.9881 10.8584 20.9816 10.905 21L10.1696 22.8599ZM9.1275 21.9168C9.34933 22.3469 9.71958 22.682 10.1696 22.8599L10.905 21L9.1275 21.9168ZM8.86882 20.7381C8.88918 20.9417 8.9088 21.1431 8.93737 21.3132C8.96759 21.4932 9.01721 21.703 9.1275 21.9168L10.905 21C10.9279 21.0445 10.9231 21.0612 10.9098 20.982C10.8948 20.893 10.8819 20.7691 10.8589 20.539L8.86882 20.7381ZM8.77387 19.7885C8.7106 19.7056 8.73073 19.6689 8.76584 19.864C8.79922 20.0495 8.82609 20.3108 8.86882 20.7381L10.8589 20.539C10.8195 20.1454 10.7848 19.791 10.7342 19.5098C10.6853 19.2381 10.599 18.8836 10.364 18.5755L8.77387 19.7885ZM8.77387 19.7885L10.364 18.5755C9.92815 18.0042 9.21939 17.7106 8.50728 17.8064L8.77387 19.7885ZM8.03531 20.3928C8.36763 20.1209 8.5714 19.9551 8.72619 19.8476C8.88895 19.7345 8.87724 19.7746 8.77387 19.7885L8.50727 17.8064C8.12318 17.858 7.81149 18.0477 7.58481 18.2052C7.35015 18.3683 7.07504 18.5944 6.76884 18.8449L8.03531 20.3928ZM8.06643 20.3663L8.06644 20.3663L6.73771 18.8714L6.7377 18.8715L8.06643 20.3663ZM7.01887 21.0434C7.24807 20.9702 7.4315 20.8569 7.58013 20.751C7.72064 20.6509 7.87691 20.5224 8.0353 20.3928L6.76883 18.8449C6.58988 18.9913 6.49316 19.0698 6.41963 19.1222C6.35422 19.1688 6.36258 19.1535 6.41029 19.1383L7.01887 21.0434ZM5.61515 20.9734C6.05919 21.1658 6.55791 21.1907 7.01887 21.0434L6.41029 19.1383L6.41029 19.1383L5.61515 20.9734ZM4.6685 20.2249C4.81321 20.3696 4.95592 20.513 5.08577 20.6266C5.22313 20.7468 5.39438 20.8777 5.61515 20.9734L6.41029 19.1383C6.45624 19.1582 6.46304 19.1742 6.40259 19.1213C6.33464 19.0619 6.2462 18.9742 6.08271 18.8107L4.6685 20.2249ZM3.77506 19.3315L4.6685 20.2249L6.08271 18.8107L5.18927 17.9172L3.77506 19.3315ZM3.02657 18.3848C3.12223 18.6056 3.25318 18.7768 3.37333 18.9142C3.48692 19.044 3.63036 19.1868 3.77506 19.3315L5.18928 17.9172C5.02579 17.7538 4.93809 17.6653 4.87864 17.5974C4.82577 17.5369 4.8418 17.5437 4.86171 17.5897L3.02657 18.3848ZM2.95656 16.9811C2.8093 17.4421 2.83417 17.9408 3.02657 18.3848L4.86171 17.5897V17.5897L2.95656 16.9811ZM3.60715 15.9647C3.47756 16.123 3.34903 16.2793 3.24892 16.4198C3.14303 16.5684 3.02977 16.7519 2.95656 16.9811L4.86171 17.5897C4.84647 17.6374 4.83119 17.6457 4.87779 17.5803C4.93018 17.5068 5.00865 17.4101 5.15506 17.2311L3.60715 15.9647ZM4.2114 15.2261C4.2253 15.1228 4.26548 15.1111 4.15237 15.2738C4.0448 15.4286 3.87903 15.6324 3.60715 15.9647L5.15506 17.2311C5.40558 16.9249 5.63162 16.6498 5.79469 16.4152C5.95222 16.1885 6.14188 15.8768 6.19355 15.4928L4.2114 15.2261ZM4.2114 15.2261L4.2114 15.2261L6.19355 15.4928C6.28934 14.7806 5.99575 14.0718 5.42445 13.636L4.2114 15.2261ZM3.26193 15.1312C3.68915 15.1739 3.95044 15.2008 4.13595 15.2342C4.33101 15.2693 4.29432 15.2894 4.2114 15.2261L5.42445 13.636C5.11633 13.4009 4.76184 13.3147 4.49017 13.2658C4.20894 13.2152 3.85458 13.1805 3.46093 13.1411L3.26193 15.1312ZM2.08323 14.8725C2.29705 14.9828 2.50683 15.0324 2.6868 15.0626C2.85693 15.0912 3.05831 15.1108 3.26193 15.1312L3.46094 13.1411C3.23089 13.1181 3.10701 13.1052 3.01798 13.0902C2.93878 13.0769 2.95549 13.0721 3 13.095L2.08323 14.8725ZM1.14009 13.8304C1.31803 14.2804 1.65311 14.6507 2.08323 14.8725L3 13.095H3L1.14009 13.8304ZM1 12.6318C1 12.8364 0.999483 13.0387 1.01098 13.2109C1.02314 13.393 1.05163 13.6066 1.14009 13.8304L3 13.095C3.01841 13.1416 3.01188 13.1577 3.00653 13.0776C3.00052 12.9875 3 12.863 3 12.6318H1ZM1 11.3683V12.6318H3V11.3683H1ZM1.14017 10.1694C1.05166 10.3932 1.02315 10.607 1.01098 10.7891C0.999483 10.9613 1 11.1637 1 11.3683H3C3 11.1371 3.00052 11.0125 3.00654 10.9224C3.01189 10.8423 3.01842 10.8584 3 10.905L1.14017 10.1694ZM2.08305 9.12757C1.65308 9.34939 1.3181 9.71954 1.14017 10.1694L3 10.905L3 10.905L2.08305 9.12757ZM3.26205 8.86881C3.05837 8.88917 2.85694 8.9088 2.68677 8.93737C2.50676 8.9676 2.29692 9.01724 2.08305 9.12757L3 10.905C2.95548 10.928 2.93877 10.9231 3.01798 10.9098C3.10704 10.8948 3.23094 10.8819 3.46105 10.8589L3.26205 8.86881ZM3.36155 8.86384H3.36155V10.8638H3.36155V8.86384ZM3.36156 8.86384H3.36155V10.8638H3.36156V8.86384ZM4.21177 8.77383C4.29471 8.71055 4.33141 8.73069 4.1363 8.7658C3.95075 8.7992 3.68939 8.82607 3.26205 8.86881L3.46106 10.8589C3.85482 10.8195 4.20927 10.7848 4.49056 10.7342C4.76231 10.6853 5.1169 10.5989 5.42506 10.3638L4.21177 8.77383ZM4.21177 8.77383L4.21178 8.77383L5.42506 10.3638C5.99613 9.92801 6.28962 9.21944 6.19396 8.50749L4.21177 8.77383ZM3.60732 8.03506C3.87929 8.36746 4.04511 8.5713 4.15272 8.72614C4.26586 8.88895 4.22567 8.87724 4.21177 8.77383L6.19396 8.50749C6.14234 8.1233 5.95263 7.81151 5.79506 7.58478C5.63195 7.35006 5.40584 7.07487 5.15523 6.76858L3.60732 8.03506ZM2.95652 7.01822C3.02973 7.24751 3.14303 7.43102 3.24896 7.5797C3.3491 7.72027 3.47768 7.8766 3.60732 8.03506L5.15523 6.76858C5.00876 6.58956 4.93026 6.49279 4.87785 6.41923C4.83123 6.35379 4.84651 6.36215 4.86175 6.40988L2.95652 7.01822ZM3.02651 5.61498C2.83424 6.05887 2.80938 6.5574 2.95652 7.01822L4.86175 6.40988L3.02651 5.61498ZM3.77523 4.66798C3.63047 4.81274 3.48698 4.9555 3.37335 5.08539C3.25316 5.2228 3.12217 5.39412 3.02651 5.61498L4.86175 6.40988C4.84184 6.45585 4.8258 6.46265 4.8787 6.40219C4.93816 6.33421 5.02589 6.24574 5.18944 6.0822L3.77523 4.66798ZM4.66855 3.77466L3.77523 4.66798L5.18944 6.0822L6.08276 5.18888L4.66855 3.77466ZM4.66855 3.77466L4.66855 3.77466L6.08276 5.18888L6.08276 5.18887L4.66855 3.77466ZM5.6152 3.02616C5.39443 3.12181 5.22317 3.25276 5.08582 3.37292C4.95597 3.48651 4.81325 3.62995 4.66855 3.77466L6.08276 5.18887C6.24625 5.02538 6.33469 4.93768 6.40264 4.87824C6.46309 4.82536 6.45629 4.84139 6.41034 4.8613L5.6152 3.02616ZM7.01892 2.95614C6.55795 2.80889 6.05923 2.83377 5.6152 3.02615L6.41033 4.8613H6.41034L7.01892 2.95614ZM8.03543 3.60681C7.87702 3.47719 7.72073 3.34865 7.58021 3.24853C7.43158 3.14264 7.24813 3.02936 7.01892 2.95614L6.41034 4.8613C6.36262 4.84606 6.35426 4.83078 6.41969 4.8774C6.49324 4.9298 6.58999 5.00829 6.76896 5.15472L8.03543 3.60681ZM8.77391 4.21101C8.87727 4.22493 8.88897 4.26509 8.72621 4.15198C8.57144 4.04441 8.36769 3.87865 8.03543 3.60681L6.76896 5.15472C7.07512 5.40521 7.35018 5.63122 7.58477 5.79427C7.81138 5.95176 8.123 6.14141 8.50697 6.19312L8.77391 4.21101ZM8.77391 4.21101L8.77391 4.21101L8.50697 6.19312C9.21932 6.28905 9.92836 5.99536 10.3642 5.42382L8.77391 4.21101ZM8.86883 3.2618C8.82612 3.6889 8.79926 3.95012 8.76589 4.13558C8.7308 4.33059 8.71068 4.29392 8.77391 4.21101L10.3642 5.42382C10.5992 5.11576 10.6854 4.76136 10.7343 4.48976C10.7849 4.20861 10.8196 3.85435 10.8589 3.46081L8.86883 3.2618ZM9.12739 2.08341C9.01716 2.29719 8.96756 2.50692 8.93736 2.68683C8.9088 2.85692 8.88919 3.05824 8.86883 3.2618L10.8589 3.46081C10.8819 3.23082 10.8948 3.10698 10.9098 3.01798C10.923 2.9388 10.9279 2.9555 10.905 3L9.12739 2.08341ZM10.1698 1.14002C9.71962 1.31796 9.34924 1.65315 9.12739 2.08341L10.905 3L10.905 3L10.1698 1.14002ZM11.3681 1C11.1635 1 10.9612 0.999483 10.7892 1.01097C10.6071 1.02313 10.3935 1.05161 10.1698 1.14002L10.905 3C10.8584 3.0184 10.8423 3.01188 10.9224 3.00653C11.0125 3.00052 11.137 3 11.3681 3V1ZM12.6318 1H11.3681V3H12.6318V1ZM13.8304 1.1401C13.6066 1.05163 13.393 1.02314 13.2109 1.01098C13.0387 0.999483 12.8364 1 12.6318 1V3C12.863 3 12.9875 3.00052 13.0776 3.00653C13.1577 3.01188 13.1416 3.01841 13.095 3L13.8304 1.1401ZM14.8725 2.08322C14.6507 1.65312 14.2804 1.31803 13.8304 1.1401L13.095 3L13.095 3L14.8725 2.08322ZM15 12C15 13.6569 13.6569 15 12 15V17C14.7614 17 17 14.7614 17 12H15ZM12 9C13.6569 9 15 10.3431 15 12H17C17 9.23858 14.7614 7 12 7V9ZM9 12C9 10.3431 10.3431 9 12 9V7C9.23858 7 7 9.23858 7 12H9ZM12 15C10.3431 15 9 13.6569 9 12H7C7 14.7614 9.23858 17 12 17V15Z" fill="#33363F"></path>
  </symbol>
  <symbol fill="none" xmlns="http://www.w3.org/2000/svg" viewBox="0 0 24 24" id="User_alt">
    <circle cx="12" cy="7" r="4" stroke="#33363F" stroke-width="2" stroke-linecap="round"></circle>
    <path d="M5.33788 18.3206C5.99897 15.5269 8.77173 14 11.6426 14H12.3574C15.2283 14 18.001 15.5269 18.6621 18.3206C18.79 18.8611 18.8917 19.4268 18.9489 20.0016C19.0036 20.5512 18.5523 21 18 21H6C5.44772 21 4.99642 20.5512 5.0511 20.0016C5.1083 19.4268 5.20997 18.8611 5.33788 18.3206Z" stroke="#33363F" stroke-width="2" stroke-linecap="round"></path>
  </symbol>
  <symbol fill="none" xmlns="http://www.w3.org/2000/svg" viewBox="0 0 24 24" id="Comment">
    <path d="M4.32698 6.63803L5.21799 7.09202L4.32698 6.63803ZM4.7682 20.2318L4.06109 19.5247H4.06109L4.7682 20.2318ZM18.362 16.673L18.816 17.564L18.816 17.564L18.362 16.673ZM19.673 15.362L20.564 15.816L20.564 15.816L19.673 15.362ZM19.673 6.63803L20.564 6.18404L20.564 6.18404L19.673 6.63803ZM18.362 5.32698L18.816 4.43597L18.816 4.43597L18.362 5.32698ZM5.63803 5.32698L6.09202 6.21799L5.63803 5.32698ZM7.70711 17.2929L7 16.5858L7.70711 17.2929ZM5 9.8C5 8.94342 5.00078 8.36113 5.03755 7.91104C5.07337 7.47262 5.1383 7.24842 5.21799 7.09202L3.43597 6.18404C3.18868 6.66937 3.09012 7.18608 3.04419 7.74817C2.99922 8.2986 3 8.97642 3 9.8H5ZM5 12V9.8H3V12H5ZM3 12V17H5V12H3ZM3 17V19.9136H5V17H3ZM3 19.9136C3 21.2054 4.56185 21.8524 5.4753 20.9389L4.06109 19.5247C4.40757 19.1782 5 19.4236 5 19.9136H3ZM5.4753 20.9389L8.41421 18L7 16.5858L4.06109 19.5247L5.4753 20.9389ZM15.2 16H8.41421V18H15.2V16ZM17.908 15.782C17.7516 15.8617 17.5274 15.9266 17.089 15.9624C16.6389 15.9992 16.0566 16 15.2 16V18C16.0236 18 16.7014 18.0008 17.2518 17.9558C17.8139 17.9099 18.3306 17.8113 18.816 17.564L17.908 15.782ZM18.782 14.908C18.5903 15.2843 18.2843 15.5903 17.908 15.782L18.816 17.564C19.5686 17.1805 20.1805 16.5686 20.564 15.816L18.782 14.908ZM19 12.2C19 13.0566 18.9992 13.6389 18.9624 14.089C18.9266 14.5274 18.8617 14.7516 18.782 14.908L20.564 15.816C20.8113 15.3306 20.9099 14.8139 20.9558 14.2518C21.0008 13.7014 21 13.0236 21 12.2H19ZM19 9.8V12.2H21V9.8H19ZM18.782 7.09202C18.8617 7.24842 18.9266 7.47262 18.9624 7.91104C18.9992 8.36113 19 8.94342 19 9.8H21C21 8.97642 21.0008 8.2986 20.9558 7.74817C20.9099 7.18608 20.8113 6.66937 20.564 6.18404L18.782 7.09202ZM17.908 6.21799C18.2843 6.40973 18.5903 6.71569 18.782 7.09202L20.564 6.18404C20.1805 5.43139 19.5686 4.81947 18.816 4.43597L17.908 6.21799ZM15.2 6C16.0566 6 16.6389 6.00078 17.089 6.03755C17.5274 6.07337 17.7516 6.1383 17.908 6.21799L18.816 4.43597C18.3306 4.18868 17.8139 4.09012 17.2518 4.04419C16.7014 3.99922 16.0236 4 15.2 4V6ZM8.8 6H15.2V4H8.8V6ZM6.09202 6.21799C6.24842 6.1383 6.47262 6.07337 6.91104 6.03755C7.36113 6.00078 7.94342 6 8.8 6V4C7.97642 4 7.2986 3.99922 6.74817 4.04419C6.18608 4.09012 5.66937 4.18868 5.18404 4.43597L6.09202 6.21799ZM5.21799 7.09202C5.40973 6.71569 5.71569 6.40973 6.09202 6.21799L5.18404 4.43597C4.43139 4.81947 3.81947 5.43139 3.43597 6.18404L5.21799 7.09202ZM8.41421 18V16C7.88378 16 7.37507 16.2107 7 16.5858L8.41421 18Z" fill="#222222"></path>
    <path d="M8 9L16 9" stroke="#222222" stroke-width="2" stroke-linecap="round" stroke-linejoin="round"></path>
    <path d="M8 13L13 13" stroke="#222222" stroke-width="2" stroke-linecap="round" stroke-linejoin="round"></path>
  </symbol>
  <symbol fill="none" xmlns="http://www.w3.org/2000/svg" viewBox="0 0 24 24" id="Favorite">
    <path d="M4.45067 13.9082L11.4033 20.4395C11.6428 20.6644 11.7625 20.7769 11.9037 20.8046C11.9673 20.8171 12.0327 20.8171 12.0963 20.8046C12.2375 20.7769 12.3572 20.6644 12.5967 20.4395L19.5493 13.9082C21.5055 12.0706 21.743 9.0466 20.0978 6.92607L19.7885 6.52734C17.8203 3.99058 13.8696 4.41601 12.4867 7.31365C12.2913 7.72296 11.7087 7.72296 11.5133 7.31365C10.1304 4.41601 6.17972 3.99058 4.21154 6.52735L3.90219 6.92607C2.25695 9.0466 2.4945 12.0706 4.45067 13.9082Z" stroke="#33363F" stroke-width="2"></path>
  </symbol>
  <symbol fill="none" xmlns="http://www.w3.org/2000/svg" viewBox="0 0 24 24" id="Filter_alt">
    <path d="M9.65811 19.7806L9.97433 20.7293H9.97433L9.65811 19.7806ZM14.6581 18.114L14.9743 19.0627L14.9743 19.0626L14.6581 18.114ZM19.7071 7.29289L20.4142 8L19.7071 7.29289ZM15.2929 11.7071L14.5858 11L15.2929 11.7071ZM5 5H19V3H5V5ZM5 6.58579V5H3V6.58579H5ZM9.41421 11L5 6.58579L3.58579 8L7.99999 12.4142L9.41421 11ZM7.99999 12.4142V19.3063H9.99999V12.4142H7.99999ZM7.99999 19.3063C7.99999 20.3301 9.00304 21.0531 9.97433 20.7293L9.34188 18.832C9.66565 18.724 9.99999 18.965 9.99999 19.3063H7.99999ZM9.97433 20.7293L14.9743 19.0627L14.3419 17.1653L9.34188 18.832L9.97433 20.7293ZM14.9743 19.0626C15.5868 18.8585 16 18.2853 16 17.6396H14C14 17.4244 14.1377 17.2333 14.3419 17.1653L14.9743 19.0626ZM16 17.6396V12.4142H14V17.6396H16ZM19 6.58579L14.5858 11L16 12.4142L20.4142 8L19 6.58579ZM19 5V6.58579H21V5H19ZM20.4142 8C20.7893 7.62493 21 7.11622 21 6.58579H19L20.4142 8ZM16 12.4142V12.4142L14.5858 11C14.2107 11.3751 14 11.8838 14 12.4142H16ZM7.99999 12.4142H9.99999C9.99999 11.8838 9.78928 11.3751 9.41421 11L7.99999 12.4142ZM3 6.58579C3 7.11622 3.21071 7.62493 3.58579 8L5 6.58579V6.58579H3ZM19 5H21C21 3.89543 20.1046 3 19 3V5ZM5 3C3.89543 3 3 3.89543 3 5H5V5V3Z" fill="#33363F"></path>
  </symbol>
  <symbol fill="none" xmlns="http://www.w3.org/2000/svg" viewBox="0 0 24 24" id="Expand_down">
    <path d="M18 9L12 15L6 9" stroke="#33363F" stroke-width="2" stroke-linecap="round"></path>
  </symbol>
  <symbol fill="none" xmlns="http://www.w3.org/2000/svg" viewBox="0 0 23 18" id="GIF">
    <path d="M22 13V5C22 2.79086 20.2091 1 18 1H5C2.79086 1 1 2.79086 1 5V13C1 15.2091 2.79086 17 5 17H18C20.2091 17 22 15.2091 22 13Z" stroke="#222222" stroke-width="2"></path>
    <path d="M8.82466 8.07812C8.77495 7.9053 8.70511 7.7526 8.61515 7.62003C8.52518 7.48509 8.4151 7.37145 8.28489 7.27912C8.15705 7.18442 8.01027 7.11222 7.84455 7.0625C7.6812 7.01278 7.50009 6.98793 7.30123 6.98793C6.92954 6.98793 6.60284 7.08026 6.32111 7.26491C6.04176 7.44957 5.82395 7.71828 5.6677 8.07102C5.51145 8.4214 5.43333 8.84991 5.43333 9.35653C5.43333 9.86316 5.51027 10.294 5.66415 10.6491C5.81803 11.0043 6.03584 11.2753 6.31756 11.4624C6.59928 11.647 6.93191 11.7393 7.31543 11.7393C7.66344 11.7393 7.96055 11.6778 8.20676 11.5547C8.45534 11.4292 8.64474 11.2528 8.77495 11.0256C8.90752 10.7983 8.97381 10.5296 8.97381 10.2195L9.28631 10.2656H7.41131V9.10795H10.4546V10.0241C10.4546 10.6634 10.3197 11.2126 10.0498 11.6719C9.77992 12.1288 9.40823 12.4815 8.93475 12.7301C8.46126 12.9763 7.91912 13.0994 7.30833 13.0994C6.62651 13.0994 6.02755 12.9491 5.51145 12.6484C4.99535 12.3454 4.59289 11.9157 4.30407 11.3594C4.01761 10.8007 3.87438 10.1378 3.87438 9.37074C3.87438 8.78125 3.95961 8.25568 4.13006 7.79403C4.30288 7.33002 4.54436 6.93703 4.85449 6.61506C5.16462 6.29309 5.52566 6.04806 5.93759 5.87997C6.34952 5.71188 6.79578 5.62784 7.27637 5.62784C7.6883 5.62784 8.07182 5.68821 8.42694 5.80895C8.78205 5.92732 9.09692 6.09541 9.37154 6.31321C9.64853 6.53101 9.87462 6.79025 10.0498 7.09091C10.225 7.3892 10.3374 7.71828 10.3872 8.07812H8.82466ZM13.1473 5.72727V13H11.6096V5.72727H13.1473ZM14.4124 13V5.72727H19.2277V6.99503H15.95V8.72798H18.9081V9.99574H15.95V13H14.4124Z" fill="#222222"></path>
  </symbol>
  <symbol fill="none" xmlns="http://www.w3.org/2000/svg" viewBox="0 0 24 24" id="GIft">
    <path d="M3 10C3 9.05719 3 8.58579 3.29289 8.29289C3.58579 8 4.05719 8 5 8H19C19.9428 8 20.4142 8 20.7071 8.29289C21 8.58579 21 9.05719 21 10V11.5C21 11.9659 21 12.1989 20.9239 12.3827C20.8224 12.6277 20.6277 12.8224 20.3827 12.9239C20.1989 13 19.9659 13 19.5 13V13C19.0341 13 18.8011 13 18.6173 13.0761C18.3723 13.1776 18.1776 13.3723 18.0761 13.6173C18 13.8011 18 14.0341 18 14.5V18C18 18.9428 18 19.4142 17.7071 19.7071C17.4142 20 16.9428 20 16 20H8C7.05719 20 6.58579 20 6.29289 19.7071C6 19.4142 6 18.9428 6 18V14.5C6 14.0341 6 13.8011 5.92388 13.6173C5.82239 13.3723 5.62771 13.1776 5.38268 13.0761C5.19891 13 4.96594 13 4.5 13V13C4.03406 13 3.80109 13 3.61732 12.9239C3.37229 12.8224 3.17761 12.6277 3.07612 12.3827C3 12.1989 3 11.9659 3 11.5V10Z" stroke="#33363F" stroke-width="2"></path>
    <path d="M5 13H19" stroke="#33363F" stroke-width="2" stroke-linecap="round"></path>
    <path d="M12 7L12 20" stroke="#33363F" stroke-width="2" stroke-linecap="round"></path>
    <path d="M12 7L11.1214 6.12144C10.0551 5.05514 8.75521 4.25174 7.3246 3.77487V3.77487C6.18099 3.39366 5 4.24487 5 5.45035V5.63246C5 6.44914 5.52259 7.1742 6.29737 7.43246L8 8" stroke="#33363F" stroke-width="2" stroke-linecap="round"></path>
    <path d="M12 7L12.8786 6.12144C13.9449 5.05514 15.2448 4.25174 16.6754 3.77487V3.77487C17.819 3.39366 19 4.24487 19 5.45035V5.63246C19 6.44914 18.4774 7.1742 17.7026 7.43246L16 8" stroke="#33363F" stroke-width="2" stroke-linecap="round"></path>
  </symbol>
  <symbol fill="none" xmlns="http://www.w3.org/2000/svg" viewBox="0 0 24 24" id="Group">
    <circle cx="12" cy="8" r="3" stroke="#33363F" stroke-width="2" stroke-linecap="round"></circle>
    <path d="M15.2679 8C15.5332 7.54063 15.97 7.20543 16.4824 7.06815C16.9947 6.93086 17.5406 7.00273 18 7.26795C18.4594 7.53317 18.7946 7.97 18.9319 8.48236C19.0691 8.99472 18.9973 9.54063 18.7321 10C18.4668 10.4594 18.03 10.7946 17.5176 10.9319C17.0053 11.0691 16.4594 10.9973 16 10.7321C15.5406 10.4668 15.2054 10.03 15.0681 9.51764C14.9309 9.00528 15.0027 8.45937 15.2679 8L15.2679 8Z" stroke="#33363F" stroke-width="2"></path>
    <path d="M5.26795 8C5.53317 7.54063 5.97 7.20543 6.48236 7.06815C6.99472 6.93086 7.54063 7.00273 8 7.26795C8.45937 7.53317 8.79457 7.97 8.93185 8.48236C9.06914 8.99472 8.99727 9.54063 8.73205 10C8.46683 10.4594 8.03 10.7946 7.51764 10.9319C7.00528 11.0691 6.45937 10.9973 6 10.7321C5.54063 10.4668 5.20543 10.03 5.06815 9.51764C4.93086 9.00528 5.00273 8.45937 5.26795 8L5.26795 8Z" stroke="#33363F" stroke-width="2"></path>
    <path d="M16.8816 18L15.9013 18.1974L16.0629 19H16.8816V18ZM20.7202 16.9042L21.6627 16.5699L20.7202 16.9042ZM14.7808 14.7105L14.176 13.9142L13.0194 14.7927L14.2527 15.5597L14.7808 14.7105ZM19.8672 17H16.8816V19H19.8672V17ZM19.7777 17.2384C19.7707 17.2186 19.7642 17.181 19.7725 17.1354C19.7804 17.0921 19.7982 17.0593 19.8151 17.0383C19.8474 16.9982 19.874 17 19.8672 17V19C21.0132 19 22.1414 17.9194 21.6627 16.5699L19.7777 17.2384ZM17 15C18.6416 15 19.4027 16.1811 19.7777 17.2384L21.6627 16.5699C21.1976 15.2588 19.9485 13 17 13V15ZM15.3857 15.5069C15.7702 15.2148 16.282 15 17 15V13C15.8381 13 14.9028 13.3622 14.176 13.9142L15.3857 15.5069ZM14.2527 15.5597C15.2918 16.206 15.7271 17.3324 15.9013 18.1974L17.8619 17.8026C17.644 16.7204 17.0374 14.9364 15.309 13.8614L14.2527 15.5597Z" fill="#33363F"></path>
    <path d="M9.21918 14.7105L9.7473 15.5597L10.9806 14.7927L9.82403 13.9142L9.21918 14.7105ZM3.2798 16.9041L4.22227 17.2384L4.22227 17.2384L3.2798 16.9041ZM7.11835 18V19H7.93703L8.09867 18.1974L7.11835 18ZM7.00001 15C7.71803 15 8.22986 15.2148 8.61433 15.5069L9.82403 13.9142C9.09723 13.3621 8.1619 13 7.00001 13V15ZM4.22227 17.2384C4.59732 16.1811 5.35842 15 7.00001 15V13C4.0515 13 2.80238 15.2587 2.33733 16.5699L4.22227 17.2384ZM4.13278 17C4.126 17 4.15264 16.9982 4.18486 17.0383C4.20176 17.0593 4.21961 17.0921 4.22748 17.1354C4.2358 17.181 4.22931 17.2186 4.22227 17.2384L2.33733 16.5699C1.85864 17.9194 2.98677 19 4.13278 19V17ZM7.11835 17H4.13278V19H7.11835V17ZM8.09867 18.1974C8.27289 17.3324 8.70814 16.206 9.7473 15.5597L8.69106 13.8614C6.96257 14.9363 6.356 16.7203 6.13804 17.8026L8.09867 18.1974Z" fill="#33363F"></path>
    <path d="M12 14C15.5715 14 16.5919 16.5512 16.8834 18.0089C16.9917 18.5504 16.5523 19 16 19H8C7.44772 19 7.00829 18.5504 7.11659 18.0089C7.4081 16.5512 8.42846 14 12 14Z" stroke="#33363F" stroke-width="2" stroke-linecap="round"></path>
  </symbol>
  <symbol fill="none" xmlns="http://www.w3.org/2000/svg" viewBox="0 0 24 24" id="Group_add_light">
    <circle cx="9" cy="9" r="3" stroke="#33363F" stroke-width="2" stroke-linecap="round"></circle>
    <path d="M12.2679 9C12.5332 8.54063 12.97 8.20543 13.4824 8.06815C13.9947 7.93086 14.5406 8.00273 15 8.26795C15.4594 8.53317 15.7946 8.97 15.9319 9.48236C16.0691 9.99472 15.9973 10.5406 15.7321 11C15.4668 11.4594 15.03 11.7946 14.5176 11.9319C14.0053 12.0691 13.4594 11.9973 13 11.7321C12.5406 11.4668 12.2054 11.03 12.0681 10.5176C11.9309 10.0053 12.0027 9.45937 12.2679 9L12.2679 9Z" stroke="#33363F" stroke-width="2"></path>
    <path d="M13.8816 19L12.9013 19.1974L13.0629 20H13.8816V19ZM17.7202 17.9042L18.6627 17.5699L17.7202 17.9042ZM11.7808 15.7105L11.176 14.9142L10.0194 15.7927L11.2527 16.5597L11.7808 15.7105ZM16.8672 18H13.8816V20H16.8672V18ZM16.7777 18.2384C16.7707 18.2186 16.7642 18.181 16.7725 18.1354C16.7804 18.0921 16.7982 18.0593 16.8151 18.0383C16.8474 17.9982 16.874 18 16.8672 18V20C18.0132 20 19.1414 18.9194 18.6627 17.5699L16.7777 18.2384ZM14 16C15.6416 16 16.4027 17.1811 16.7777 18.2384L18.6627 17.5699C18.1976 16.2588 16.9485 14 14 14V16ZM12.3857 16.5069C12.7702 16.2148 13.282 16 14 16V14C12.8381 14 11.9028 14.3622 11.176 14.9142L12.3857 16.5069ZM11.2527 16.5597C12.2918 17.206 12.7271 18.3324 12.9013 19.1974L14.8619 18.8026C14.644 17.7204 14.0374 15.9364 12.309 14.8614L11.2527 16.5597Z" fill="#33363F"></path>
    <path d="M9 15C12.5715 15 13.5919 17.5512 13.8834 19.0089C13.9917 19.5504 13.5523 20 13 20H5C4.44772 20 4.00829 19.5504 4.11659 19.0089C4.4081 17.5512 5.42846 15 9 15Z" stroke="#33363F" stroke-width="2" stroke-linecap="round"></path>
    <path d="M19 3V7" stroke="#33363F" stroke-width="2" stroke-linecap="round"></path>
    <path d="M21 5L17 5" stroke="#33363F" stroke-width="2" stroke-linecap="round"></path>
  </symbol>
  <symbol fill="none" xmlns="http://www.w3.org/2000/svg" viewBox="0 0 24 24" id="happy">
    <circle cx="12" cy="12" r="10" stroke="#33363F" stroke-width="2" stroke-linecap="round"></circle>
    <path d="M7.88124 15.7559C8.37391 16.1826 9.02309 16.4909 9.72265 16.6928C10.4301 16.897 11.2142 17 12 17C12.7858 17 13.5699 16.897 14.2774 16.6928C14.9769 16.4909 15.6261 16.1826 16.1188 15.7559" stroke="#33363F" stroke-width="2" stroke-linecap="round"></path>
    <circle cx="9" cy="10" r="1.25" fill="#33363F" stroke="#33363F" stroke-width="0.5" stroke-linecap="round"></circle>
    <circle cx="15" cy="10" r="1.25" fill="#33363F" stroke="#33363F" stroke-width="0.5" stroke-linecap="round"></circle>
  </symbol>
  <symbol fill="none" xmlns="http://www.w3.org/2000/svg" viewBox="0 0 24 24" id="Lable">
    <path d="M3 8C3 7.05719 3 6.58579 3.29289 6.29289C3.58579 6 4.05719 6 5 6H15.9296C16.4536 6 16.7156 6 16.9367 6.11833C17.1578 6.23665 17.3031 6.45463 17.5937 6.8906L20.2604 10.8906C20.6189 11.4283 20.7981 11.6972 20.7981 12C20.7981 12.3028 20.6189 12.5717 20.2604 13.1094L17.5937 17.1094C17.3031 17.5454 17.1578 17.7633 16.9367 17.8817C16.7156 18 16.4536 18 15.9296 18H5C4.05719 18 3.58579 18 3.29289 17.7071C3 17.4142 3 16.9428 3 16V8Z" stroke="#33363F" stroke-width="2"></path>
    <circle cx="15" cy="12" r="1" fill="#33363F" stroke="#33363F" stroke-width="2"></circle>
  </symbol>
</svg>