<svg width="122" height="36" viewBox="0 0 122 36" fill="none" xmlns="http://www.w3.org/2000/svg">
<rect width="9.98304" height="9.90455" transform="matrix(0.707107 -0.707107 0.713388 0.700769 13 29.0591)" fill="#00A0FF"/>
<rect width="40" height="30" rx="4" fill="#00A0FF"/>
<path d="M20 25C25.5228 25 30 20.5228 30 15C30 9.47715 25.5228 5 20 5C14.4772 5 10 9.47715 10 15C10 20.5228 14.4772 25 20 25Z" fill="#FDFDFD"/>
<path d="M20 15C21.6569 15 23 13.6569 23 12C23 10.3431 21.6569 9 20 9C18.3431 9 17 10.3431 17 12C17 13.6569 18.3431 15 20 15Z" fill="#00A0FF"/>
<path d="M16.8851 21C14.0097 21 13.2205 18.8841 14.8026 16.1951C16.3847 13.5061 17.1336 16.1951 20.009 16.1951C22.8844 16.1951 23.6736 13.5061 25.2154 16.1951C26.7571 18.8841 26.0082 21 23.1328 21" fill="#00A0FF"/>
<path d="M52.8125 4C53.9583 4 54.9427 4.13021 55.7656 4.39062C56.599 4.65104 57.2969 4.98958 57.8594 5.40625C58.4323 5.82292 58.8906 6.29688 59.2344 6.82812C59.5781 7.34896 59.8385 7.88021 60.0156 8.42188C60.2031 8.96354 60.3229 9.48438 60.375 9.98438C60.4375 10.4844 60.4688 10.9167 60.4688 11.2812C60.4688 11.4375 60.4531 11.6302 60.4219 11.8594C60.401 12.0781 60.3125 12.2917 60.1562 12.5C60 12.7083 59.75 12.8854 59.4062 13.0312C59.0729 13.1771 58.5938 13.25 57.9688 13.25C57.7604 13.25 57.5 13.2396 57.1875 13.2188C56.875 13.1875 56.5729 13.1198 56.2812 13.0156C55.9896 12.901 55.7396 12.7448 55.5312 12.5469C55.3229 12.3385 55.2188 12.0521 55.2188 11.6875C55.2188 11.125 55.1823 10.6198 55.1094 10.1719C55.0469 9.72396 54.9271 9.34375 54.75 9.03125C54.5729 8.71875 54.3281 8.47917 54.0156 8.3125C53.7031 8.14583 53.3021 8.0625 52.8125 8.0625C52.3021 8.0625 51.9062 8.17188 51.625 8.39062C51.3542 8.59896 51.1562 8.82812 51.0312 9.07812C50.8854 9.38021 50.8021 9.71875 50.7812 10.0938V20C50.8021 20.4583 50.8854 20.8594 51.0312 21.2031C51.1562 21.5052 51.3542 21.7812 51.625 22.0312C51.9062 22.2812 52.3021 22.4062 52.8125 22.4062C53.3021 22.4062 53.7031 22.3073 54.0156 22.1094C54.3281 21.901 54.5729 21.625 54.75 21.2812C54.9271 20.9375 55.0469 20.5417 55.1094 20.0938C55.1823 19.6458 55.2188 19.1771 55.2188 18.6875C55.2188 18.5312 55.2448 18.3698 55.2969 18.2031C55.349 18.0365 55.4688 17.8854 55.6562 17.75C55.8438 17.6042 56.1198 17.4844 56.4844 17.3906C56.849 17.2969 57.3438 17.25 57.9688 17.25C58.5938 17.25 59.0729 17.3229 59.4062 17.4688C59.75 17.6042 60 17.7656 60.1562 17.9531C60.3125 18.1302 60.401 18.3073 60.4219 18.4844C60.4531 18.651 60.4688 18.7604 60.4688 18.8125C60.4688 19.9583 60.276 20.9844 59.8906 21.8906C59.5052 22.7865 58.9583 23.5469 58.25 24.1719C57.5521 24.7969 56.7135 25.276 55.7344 25.6094C54.7656 25.9323 53.6979 26.0938 52.5312 26.0938C52.3438 26.0938 52.0365 26.0781 51.6094 26.0469C51.1927 26.0156 50.724 25.9323 50.2031 25.7969C49.6823 25.6615 49.1458 25.4583 48.5938 25.1875C48.0417 24.9167 47.5365 24.5417 47.0781 24.0625C46.6302 23.5729 46.2604 22.9688 45.9688 22.25C45.6771 21.5208 45.5312 20.6354 45.5312 19.5938V10.875C45.5312 10.0208 45.6354 9.26562 45.8438 8.60938C46.0521 7.95312 46.3229 7.38542 46.6562 6.90625C47 6.41667 47.3906 6.01042 47.8281 5.6875C48.2656 5.35417 48.7135 5.07812 49.1719 4.85938C50.2344 4.35938 51.4479 4.07292 52.8125 4ZM62.6875 16.25C62.6875 15.2917 62.8177 14.4792 63.0781 13.8125C63.3385 13.1458 63.6719 12.5885 64.0781 12.1406C64.4948 11.6927 64.9531 11.3438 65.4531 11.0938C65.9635 10.8438 66.4635 10.6562 66.9531 10.5312C67.4427 10.4062 67.8958 10.3281 68.3125 10.2969C68.7396 10.2656 69.0729 10.25 69.3125 10.25C69.5521 10.25 69.8802 10.2656 70.2969 10.2969C70.7135 10.3281 71.1562 10.4062 71.625 10.5312C72.1042 10.6562 72.5833 10.8438 73.0625 11.0938C73.5521 11.3438 73.9896 11.6927 74.375 12.1406C74.7708 12.5885 75.0938 13.1458 75.3438 13.8125C75.5938 14.4792 75.7188 15.2917 75.7188 16.25V20.125C75.7188 21.0833 75.5938 21.8958 75.3438 22.5625C75.0938 23.2292 74.7708 23.7865 74.375 24.2344C73.9896 24.6823 73.5521 25.0312 73.0625 25.2812C72.5833 25.5312 72.1042 25.7188 71.625 25.8438C71.1562 25.9688 70.7135 26.0469 70.2969 26.0781C69.8802 26.1094 69.5521 26.125 69.3125 26.125C69.0729 26.125 68.7396 26.1094 68.3125 26.0781C67.8958 26.0469 67.4427 25.9688 66.9531 25.8438C66.4635 25.7188 65.9635 25.5312 65.4531 25.2812C64.9531 25.0312 64.4948 24.6823 64.0781 24.2344C63.6719 23.7865 63.3385 23.2292 63.0781 22.5625C62.8177 21.8958 62.6875 21.0833 62.6875 20.125V16.25ZM67.5 21.2188C67.5104 21.5208 67.5833 21.7865 67.7188 22.0156C67.8333 22.224 68.0104 22.4115 68.25 22.5781C68.5 22.7344 68.8542 22.8125 69.3125 22.8125C69.75 22.8125 70.0833 22.7344 70.3125 22.5781C70.5521 22.4115 70.7292 22.224 70.8438 22.0156C70.9688 21.7865 71.0417 21.5208 71.0625 21.2188V15.5625C71.0417 15.25 70.9688 14.9635 70.8438 14.7031C70.7292 14.4948 70.5521 14.3021 70.3125 14.125C70.0833 13.9375 69.75 13.8438 69.3125 13.8438C68.8542 13.8438 68.5 13.9375 68.25 14.125C68.0104 14.3021 67.8333 14.4948 67.7188 14.7031C67.5833 14.9635 67.5104 15.25 67.5 15.5625V21.2188ZM92.0312 22.4375C92.0312 22.8854 92.0052 23.3229 91.9531 23.75C91.901 24.1771 91.7865 24.5573 91.6094 24.8906C91.4427 25.224 91.1979 25.4948 90.875 25.7031C90.5625 25.901 90.1354 26 89.5938 26C89.0625 26 88.6406 25.901 88.3281 25.7031C88.0156 25.4948 87.776 25.224 87.6094 24.8906C87.4427 24.5573 87.3333 24.1771 87.2812 23.75C87.2396 23.3229 87.2188 22.8854 87.2188 22.4375V16.3438C87.2188 16.0521 87.2031 15.7656 87.1719 15.4844C87.151 15.2031 87.0938 14.9583 87 14.75C86.9062 14.5312 86.7656 14.3594 86.5781 14.2344C86.401 14.099 86.1562 14.0312 85.8438 14.0312C85.4167 14.0312 85.0729 14.1719 84.8125 14.4531C84.5521 14.7344 84.3438 15.1198 84.1875 15.6094C84.0417 16.099 83.9427 16.6771 83.8906 17.3438C83.8385 18 83.8125 18.7083 83.8125 19.4688V22.4375C83.8125 22.8854 83.7865 23.3229 83.7344 23.75C83.6823 24.1771 83.5677 24.5573 83.3906 24.8906C83.224 25.224 82.9792 25.4948 82.6562 25.7031C82.3438 25.901 81.9167 26 81.375 26C80.8438 26 80.4219 25.901 80.1094 25.7031C79.7969 25.4948 79.5573 25.224 79.3906 24.8906C79.224 24.5573 79.1146 24.1771 79.0625 23.75C79.0208 23.3229 79 22.8854 79 22.4375V13.9062C79 13.4583 79.0156 13.026 79.0469 12.6094C79.0781 12.1823 79.1719 11.8073 79.3281 11.4844C79.4844 11.151 79.7188 10.8854 80.0312 10.6875C80.3542 10.4792 80.8021 10.375 81.375 10.375C81.9479 10.375 82.3958 10.474 82.7188 10.6719C83.0417 10.8594 83.2812 11.0885 83.4375 11.3594C83.6042 11.6302 83.7083 11.9167 83.75 12.2188C83.7917 12.5208 83.8125 12.7812 83.8125 13C83.8958 12.6979 84.026 12.3906 84.2031 12.0781C84.3802 11.7656 84.6042 11.4844 84.875 11.2344C85.1562 10.9844 85.4896 10.7812 85.875 10.625C86.2604 10.4583 86.7083 10.375 87.2188 10.375C87.7917 10.375 88.3646 10.4688 88.9375 10.6562C89.5104 10.8438 90.026 11.1562 90.4844 11.5938C90.9427 12.0312 91.3125 12.6042 91.5938 13.3125C91.8854 14.0208 92.0312 14.8958 92.0312 15.9375V22.4375ZM102.656 10.375C102.917 10.375 103.182 10.3906 103.453 10.4219C103.724 10.4531 103.964 10.5312 104.172 10.6562C104.391 10.7812 104.568 10.974 104.703 11.2344C104.839 11.4948 104.906 11.8542 104.906 12.3125C104.906 12.7396 104.839 13.0781 104.703 13.3281C104.568 13.5677 104.391 13.7552 104.172 13.8906C103.964 14.0156 103.724 14.099 103.453 14.1406C103.182 14.1719 102.917 14.1875 102.656 14.1875H101.719V22.4688C101.719 22.9271 101.693 23.3698 101.641 23.7969C101.599 24.2135 101.49 24.5885 101.312 24.9219C101.146 25.2448 100.896 25.5052 100.562 25.7031C100.24 25.901 99.8021 26 99.25 26C98.7188 26 98.2969 25.901 97.9844 25.7031C97.6823 25.5052 97.4531 25.2448 97.2969 24.9219C97.1406 24.5885 97.0417 24.2135 97 23.7969C96.9583 23.3698 96.9375 22.9271 96.9375 22.4688V14.1875H96.0625C95.7708 14.1875 95.4896 14.1719 95.2188 14.1406C94.9583 14.099 94.724 14.0156 94.5156 13.8906C94.3177 13.7552 94.1562 13.5677 94.0312 13.3281C93.9062 13.0781 93.8438 12.7396 93.8438 12.3125C93.8438 11.8542 93.9062 11.4948 94.0312 11.2344C94.1562 10.974 94.3177 10.7812 94.5156 10.6562C94.724 10.5312 94.9583 10.4531 95.2188 10.4219C95.4896 10.3906 95.7708 10.375 96.0625 10.375H96.9375C96.9375 9.45833 96.9792 8.61458 97.0625 7.84375C97.1458 7.07292 97.349 6.41667 97.6719 5.875C97.9948 5.32292 98.474 4.89583 99.1094 4.59375C99.7448 4.28125 100.615 4.125 101.719 4.125C102.188 4.125 102.63 4.16667 103.047 4.25C103.464 4.33333 103.828 4.46354 104.141 4.64062C104.453 4.81771 104.698 5.05208 104.875 5.34375C105.062 5.625 105.156 5.96875 105.156 6.375C105.156 6.75 105.089 7.0625 104.953 7.3125C104.828 7.5625 104.672 7.76562 104.484 7.92188C104.297 8.07812 104.089 8.1875 103.859 8.25C103.641 8.3125 103.438 8.34375 103.25 8.34375C103.094 8.34375 102.948 8.30729 102.812 8.23438C102.677 8.16146 102.521 8.125 102.344 8.125C102.198 8.125 102.083 8.17188 102 8.26562C101.927 8.35938 101.865 8.48438 101.812 8.64062C101.771 8.79688 101.745 8.96875 101.734 9.15625C101.724 9.34375 101.719 9.53125 101.719 9.71875V10.375H102.656ZM109.156 32.25C107.969 32.25 107.125 32.0781 106.625 31.7344C106.125 31.401 105.875 30.9062 105.875 30.25C105.875 29.9271 105.917 29.6562 106 29.4375C106.094 29.2188 106.219 29.0417 106.375 28.9062C106.531 28.7708 106.708 28.6719 106.906 28.6094C107.115 28.5573 107.333 28.5312 107.562 28.5312C107.719 28.5312 107.865 28.5365 108 28.5469C108.135 28.5573 108.25 28.5625 108.344 28.5625C108.542 28.5625 108.729 28.4427 108.906 28.2031C109.094 27.974 109.271 27.6823 109.438 27.3281C109.615 26.974 109.792 26.5938 109.969 26.1875C110.146 25.7812 110.323 25.4062 110.5 25.0625L110.25 24.4375C109.948 23.6771 109.63 22.8802 109.297 22.0469C108.964 21.2031 108.63 20.3542 108.297 19.5C107.974 18.6354 107.651 17.776 107.328 16.9219C107.016 16.0677 106.729 15.2396 106.469 14.4375C106.354 14.1042 106.255 13.776 106.172 13.4531C106.099 13.1302 106.062 12.8125 106.062 12.5C106.062 12.1979 106.125 11.9167 106.25 11.6562C106.375 11.3958 106.547 11.1719 106.766 10.9844C106.984 10.7969 107.234 10.651 107.516 10.5469C107.807 10.4323 108.115 10.375 108.438 10.375C108.729 10.375 108.995 10.4375 109.234 10.5625C109.484 10.6875 109.703 10.8594 109.891 11.0781C110.089 11.2969 110.26 11.5469 110.406 11.8281C110.552 12.1094 110.677 12.4062 110.781 12.7188L112.875 19.3125L114.875 12.7188C114.969 12.4271 115.089 12.1354 115.234 11.8438C115.38 11.5521 115.552 11.2969 115.75 11.0781C115.948 10.849 116.172 10.6667 116.422 10.5312C116.672 10.3854 116.948 10.3125 117.25 10.3125C117.552 10.3125 117.839 10.3698 118.109 10.4844C118.391 10.599 118.63 10.7604 118.828 10.9688C119.036 11.1667 119.198 11.4062 119.312 11.6875C119.438 11.9688 119.5 12.2708 119.5 12.5938C119.5 12.9062 119.458 13.2188 119.375 13.5312C119.302 13.8333 119.208 14.1354 119.094 14.4375L115.344 24.375C115.125 24.9375 114.885 25.5208 114.625 26.125C114.375 26.7396 114.099 27.3385 113.797 27.9219C113.495 28.5052 113.172 29.0573 112.828 29.5781C112.484 30.099 112.12 30.5573 111.734 30.9531C111.349 31.349 110.938 31.6615 110.5 31.8906C110.073 32.1302 109.625 32.25 109.156 32.25Z" fill="#00A0FF"/>
</svg>
