<svg width="40" height="36" viewBox="0 0 40 36" fill="none" xmlns="http://www.w3.org/2000/svg">
<rect width="9.98304" height="9.90455" transform="matrix(0.707107 -0.707107 0.713388 0.700769 13 29.0591)" fill="#00A0FF"/>
<rect width="40" height="30" rx="4" fill="#00A0FF"/>
<path d="M20 25C25.5228 25 30 20.5228 30 15C30 9.47715 25.5228 5 20 5C14.4772 5 10 9.47715 10 15C10 20.5228 14.4772 25 20 25Z" fill="#FDFDFD"/>
<path d="M20 15C21.6569 15 23 13.6569 23 12C23 10.3431 21.6569 9 20 9C18.3431 9 17 10.3431 17 12C17 13.6569 18.3431 15 20 15Z" fill="#00A0FF"/>
<path d="M16.8851 21C14.0097 21 13.2205 18.8841 14.8026 16.1951C16.3847 13.5061 17.1336 16.1951 20.009 16.1951C22.8844 16.1951 23.6736 13.5061 25.2154 16.1951C26.7571 18.8841 26.0082 21 23.1328 21" fill="#00A0FF"/>
</svg>
