<svg width="136" height="40" viewBox="0 0 136 40" fill="none" xmlns="http://www.w3.org/2000/svg">
<rect width="11.0923" height="11.0051" transform="matrix(0.707107 -0.707107 0.713388 0.700769 14.4445 32.288)" fill="#00A0FF"/>
<rect width="44.4446" height="33.3334" rx="4" fill="#00A0FF"/>
<path d="M22.2224 27.7779C28.3589 27.7779 33.3335 22.8033 33.3335 16.6667C33.3335 10.5302 28.3589 5.5556 22.2224 5.5556C16.0858 5.5556 11.1112 10.5302 11.1112 16.6667C11.1112 22.8033 16.0858 27.7779 22.2224 27.7779Z" fill="#FDFDFD"/>
<path d="M22.2223 16.6667C24.0632 16.6667 25.5556 15.1744 25.5556 13.3334C25.5556 11.4924 24.0632 10.0001 22.2223 10.0001C20.3813 10.0001 18.8889 11.4924 18.8889 13.3334C18.8889 15.1744 20.3813 16.6667 22.2223 16.6667Z" fill="#00A0FF"/>
<path d="M18.7614 23.3334C15.5665 23.3334 14.6895 20.9825 16.4474 17.9947C18.2053 15.0069 19.0374 17.9947 22.2323 17.9947C25.4272 17.9947 26.3042 15.0069 28.0172 17.9947C29.7303 20.9825 28.8982 23.3334 25.7033 23.3334" fill="#00A0FF"/>
<path d="M62.3125 7C63.4583 7 64.4427 7.13021 65.2656 7.39062C66.099 7.65104 66.7969 7.98958 67.3594 8.40625C67.9323 8.82292 68.3906 9.29688 68.7344 9.82812C69.0781 10.349 69.3385 10.8802 69.5156 11.4219C69.7031 11.9635 69.8229 12.4844 69.875 12.9844C69.9375 13.4844 69.9688 13.9167 69.9688 14.2812C69.9688 14.4375 69.9531 14.6302 69.9219 14.8594C69.901 15.0781 69.8125 15.2917 69.6562 15.5C69.5 15.7083 69.25 15.8854 68.9062 16.0312C68.5729 16.1771 68.0938 16.25 67.4688 16.25C67.2604 16.25 67 16.2396 66.6875 16.2188C66.375 16.1875 66.0729 16.1198 65.7812 16.0156C65.4896 15.901 65.2396 15.7448 65.0312 15.5469C64.8229 15.3385 64.7188 15.0521 64.7188 14.6875C64.7188 14.125 64.6823 13.6198 64.6094 13.1719C64.5469 12.724 64.4271 12.3438 64.25 12.0312C64.0729 11.7188 63.8281 11.4792 63.5156 11.3125C63.2031 11.1458 62.8021 11.0625 62.3125 11.0625C61.8021 11.0625 61.4062 11.1719 61.125 11.3906C60.8542 11.599 60.6562 11.8281 60.5312 12.0781C60.3854 12.3802 60.3021 12.7188 60.2812 13.0938V23C60.3021 23.4583 60.3854 23.8594 60.5312 24.2031C60.6562 24.5052 60.8542 24.7812 61.125 25.0312C61.4062 25.2812 61.8021 25.4062 62.3125 25.4062C62.8021 25.4062 63.2031 25.3073 63.5156 25.1094C63.8281 24.901 64.0729 24.625 64.25 24.2812C64.4271 23.9375 64.5469 23.5417 64.6094 23.0938C64.6823 22.6458 64.7188 22.1771 64.7188 21.6875C64.7188 21.5312 64.7448 21.3698 64.7969 21.2031C64.849 21.0365 64.9688 20.8854 65.1562 20.75C65.3438 20.6042 65.6198 20.4844 65.9844 20.3906C66.349 20.2969 66.8438 20.25 67.4688 20.25C68.0938 20.25 68.5729 20.3229 68.9062 20.4688C69.25 20.6042 69.5 20.7656 69.6562 20.9531C69.8125 21.1302 69.901 21.3073 69.9219 21.4844C69.9531 21.651 69.9688 21.7604 69.9688 21.8125C69.9688 22.9583 69.776 23.9844 69.3906 24.8906C69.0052 25.7865 68.4583 26.5469 67.75 27.1719C67.0521 27.7969 66.2135 28.276 65.2344 28.6094C64.2656 28.9323 63.1979 29.0938 62.0312 29.0938C61.8438 29.0938 61.5365 29.0781 61.1094 29.0469C60.6927 29.0156 60.224 28.9323 59.7031 28.7969C59.1823 28.6615 58.6458 28.4583 58.0938 28.1875C57.5417 27.9167 57.0365 27.5417 56.5781 27.0625C56.1302 26.5729 55.7604 25.9688 55.4688 25.25C55.1771 24.5208 55.0312 23.6354 55.0312 22.5938V13.875C55.0312 13.0208 55.1354 12.2656 55.3438 11.6094C55.5521 10.9531 55.8229 10.3854 56.1562 9.90625C56.5 9.41667 56.8906 9.01042 57.3281 8.6875C57.7656 8.35417 58.2135 8.07812 58.6719 7.85938C59.7344 7.35938 60.9479 7.07292 62.3125 7ZM72.1875 19.25C72.1875 18.2917 72.3177 17.4792 72.5781 16.8125C72.8385 16.1458 73.1719 15.5885 73.5781 15.1406C73.9948 14.6927 74.4531 14.3438 74.9531 14.0938C75.4635 13.8438 75.9635 13.6562 76.4531 13.5312C76.9427 13.4062 77.3958 13.3281 77.8125 13.2969C78.2396 13.2656 78.5729 13.25 78.8125 13.25C79.0521 13.25 79.3802 13.2656 79.7969 13.2969C80.2135 13.3281 80.6562 13.4062 81.125 13.5312C81.6042 13.6562 82.0833 13.8438 82.5625 14.0938C83.0521 14.3438 83.4896 14.6927 83.875 15.1406C84.2708 15.5885 84.5938 16.1458 84.8438 16.8125C85.0938 17.4792 85.2188 18.2917 85.2188 19.25V23.125C85.2188 24.0833 85.0938 24.8958 84.8438 25.5625C84.5938 26.2292 84.2708 26.7865 83.875 27.2344C83.4896 27.6823 83.0521 28.0312 82.5625 28.2812C82.0833 28.5312 81.6042 28.7188 81.125 28.8438C80.6562 28.9688 80.2135 29.0469 79.7969 29.0781C79.3802 29.1094 79.0521 29.125 78.8125 29.125C78.5729 29.125 78.2396 29.1094 77.8125 29.0781C77.3958 29.0469 76.9427 28.9688 76.4531 28.8438C75.9635 28.7188 75.4635 28.5312 74.9531 28.2812C74.4531 28.0312 73.9948 27.6823 73.5781 27.2344C73.1719 26.7865 72.8385 26.2292 72.5781 25.5625C72.3177 24.8958 72.1875 24.0833 72.1875 23.125V19.25ZM77 24.2188C77.0104 24.5208 77.0833 24.7865 77.2188 25.0156C77.3333 25.224 77.5104 25.4115 77.75 25.5781C78 25.7344 78.3542 25.8125 78.8125 25.8125C79.25 25.8125 79.5833 25.7344 79.8125 25.5781C80.0521 25.4115 80.2292 25.224 80.3438 25.0156C80.4688 24.7865 80.5417 24.5208 80.5625 24.2188V18.5625C80.5417 18.25 80.4688 17.9635 80.3438 17.7031C80.2292 17.4948 80.0521 17.3021 79.8125 17.125C79.5833 16.9375 79.25 16.8438 78.8125 16.8438C78.3542 16.8438 78 16.9375 77.75 17.125C77.5104 17.3021 77.3333 17.4948 77.2188 17.7031C77.0833 17.9635 77.0104 18.25 77 18.5625V24.2188ZM101.531 25.4375C101.531 25.8854 101.505 26.3229 101.453 26.75C101.401 27.1771 101.286 27.5573 101.109 27.8906C100.943 28.224 100.698 28.4948 100.375 28.7031C100.062 28.901 99.6354 29 99.0938 29C98.5625 29 98.1406 28.901 97.8281 28.7031C97.5156 28.4948 97.276 28.224 97.1094 27.8906C96.9427 27.5573 96.8333 27.1771 96.7812 26.75C96.7396 26.3229 96.7188 25.8854 96.7188 25.4375V19.3438C96.7188 19.0521 96.7031 18.7656 96.6719 18.4844C96.651 18.2031 96.5938 17.9583 96.5 17.75C96.4062 17.5312 96.2656 17.3594 96.0781 17.2344C95.901 17.099 95.6562 17.0312 95.3438 17.0312C94.9167 17.0312 94.5729 17.1719 94.3125 17.4531C94.0521 17.7344 93.8438 18.1198 93.6875 18.6094C93.5417 19.099 93.4427 19.6771 93.3906 20.3438C93.3385 21 93.3125 21.7083 93.3125 22.4688V25.4375C93.3125 25.8854 93.2865 26.3229 93.2344 26.75C93.1823 27.1771 93.0677 27.5573 92.8906 27.8906C92.724 28.224 92.4792 28.4948 92.1562 28.7031C91.8438 28.901 91.4167 29 90.875 29C90.3438 29 89.9219 28.901 89.6094 28.7031C89.2969 28.4948 89.0573 28.224 88.8906 27.8906C88.724 27.5573 88.6146 27.1771 88.5625 26.75C88.5208 26.3229 88.5 25.8854 88.5 25.4375V16.9062C88.5 16.4583 88.5156 16.026 88.5469 15.6094C88.5781 15.1823 88.6719 14.8073 88.8281 14.4844C88.9844 14.151 89.2188 13.8854 89.5312 13.6875C89.8542 13.4792 90.3021 13.375 90.875 13.375C91.4479 13.375 91.8958 13.474 92.2188 13.6719C92.5417 13.8594 92.7812 14.0885 92.9375 14.3594C93.1042 14.6302 93.2083 14.9167 93.25 15.2188C93.2917 15.5208 93.3125 15.7812 93.3125 16C93.3958 15.6979 93.526 15.3906 93.7031 15.0781C93.8802 14.7656 94.1042 14.4844 94.375 14.2344C94.6562 13.9844 94.9896 13.7812 95.375 13.625C95.7604 13.4583 96.2083 13.375 96.7188 13.375C97.2917 13.375 97.8646 13.4688 98.4375 13.6562C99.0104 13.8438 99.526 14.1562 99.9844 14.5938C100.443 15.0312 100.812 15.6042 101.094 16.3125C101.385 17.0208 101.531 17.8958 101.531 18.9375V25.4375ZM112.156 13.375C112.417 13.375 112.682 13.3906 112.953 13.4219C113.224 13.4531 113.464 13.5312 113.672 13.6562C113.891 13.7812 114.068 13.974 114.203 14.2344C114.339 14.4948 114.406 14.8542 114.406 15.3125C114.406 15.7396 114.339 16.0781 114.203 16.3281C114.068 16.5677 113.891 16.7552 113.672 16.8906C113.464 17.0156 113.224 17.099 112.953 17.1406C112.682 17.1719 112.417 17.1875 112.156 17.1875H111.219V25.4688C111.219 25.9271 111.193 26.3698 111.141 26.7969C111.099 27.2135 110.99 27.5885 110.812 27.9219C110.646 28.2448 110.396 28.5052 110.062 28.7031C109.74 28.901 109.302 29 108.75 29C108.219 29 107.797 28.901 107.484 28.7031C107.182 28.5052 106.953 28.2448 106.797 27.9219C106.641 27.5885 106.542 27.2135 106.5 26.7969C106.458 26.3698 106.438 25.9271 106.438 25.4688V17.1875H105.562C105.271 17.1875 104.99 17.1719 104.719 17.1406C104.458 17.099 104.224 17.0156 104.016 16.8906C103.818 16.7552 103.656 16.5677 103.531 16.3281C103.406 16.0781 103.344 15.7396 103.344 15.3125C103.344 14.8542 103.406 14.4948 103.531 14.2344C103.656 13.974 103.818 13.7812 104.016 13.6562C104.224 13.5312 104.458 13.4531 104.719 13.4219C104.99 13.3906 105.271 13.375 105.562 13.375H106.438C106.438 12.4583 106.479 11.6146 106.562 10.8438C106.646 10.0729 106.849 9.41667 107.172 8.875C107.495 8.32292 107.974 7.89583 108.609 7.59375C109.245 7.28125 110.115 7.125 111.219 7.125C111.688 7.125 112.13 7.16667 112.547 7.25C112.964 7.33333 113.328 7.46354 113.641 7.64062C113.953 7.81771 114.198 8.05208 114.375 8.34375C114.562 8.625 114.656 8.96875 114.656 9.375C114.656 9.75 114.589 10.0625 114.453 10.3125C114.328 10.5625 114.172 10.7656 113.984 10.9219C113.797 11.0781 113.589 11.1875 113.359 11.25C113.141 11.3125 112.938 11.3438 112.75 11.3438C112.594 11.3438 112.448 11.3073 112.312 11.2344C112.177 11.1615 112.021 11.125 111.844 11.125C111.698 11.125 111.583 11.1719 111.5 11.2656C111.427 11.3594 111.365 11.4844 111.312 11.6406C111.271 11.7969 111.245 11.9688 111.234 12.1562C111.224 12.3438 111.219 12.5312 111.219 12.7188V13.375H112.156ZM118.656 35.25C117.469 35.25 116.625 35.0781 116.125 34.7344C115.625 34.401 115.375 33.9062 115.375 33.25C115.375 32.9271 115.417 32.6562 115.5 32.4375C115.594 32.2188 115.719 32.0417 115.875 31.9062C116.031 31.7708 116.208 31.6719 116.406 31.6094C116.615 31.5573 116.833 31.5312 117.062 31.5312C117.219 31.5312 117.365 31.5365 117.5 31.5469C117.635 31.5573 117.75 31.5625 117.844 31.5625C118.042 31.5625 118.229 31.4427 118.406 31.2031C118.594 30.974 118.771 30.6823 118.938 30.3281C119.115 29.974 119.292 29.5938 119.469 29.1875C119.646 28.7812 119.823 28.4062 120 28.0625L119.75 27.4375C119.448 26.6771 119.13 25.8802 118.797 25.0469C118.464 24.2031 118.13 23.3542 117.797 22.5C117.474 21.6354 117.151 20.776 116.828 19.9219C116.516 19.0677 116.229 18.2396 115.969 17.4375C115.854 17.1042 115.755 16.776 115.672 16.4531C115.599 16.1302 115.562 15.8125 115.562 15.5C115.562 15.1979 115.625 14.9167 115.75 14.6562C115.875 14.3958 116.047 14.1719 116.266 13.9844C116.484 13.7969 116.734 13.651 117.016 13.5469C117.307 13.4323 117.615 13.375 117.938 13.375C118.229 13.375 118.495 13.4375 118.734 13.5625C118.984 13.6875 119.203 13.8594 119.391 14.0781C119.589 14.2969 119.76 14.5469 119.906 14.8281C120.052 15.1094 120.177 15.4062 120.281 15.7188L122.375 22.3125L124.375 15.7188C124.469 15.4271 124.589 15.1354 124.734 14.8438C124.88 14.5521 125.052 14.2969 125.25 14.0781C125.448 13.849 125.672 13.6667 125.922 13.5312C126.172 13.3854 126.448 13.3125 126.75 13.3125C127.052 13.3125 127.339 13.3698 127.609 13.4844C127.891 13.599 128.13 13.7604 128.328 13.9688C128.536 14.1667 128.698 14.4062 128.812 14.6875C128.938 14.9688 129 15.2708 129 15.5938C129 15.9062 128.958 16.2188 128.875 16.5312C128.802 16.8333 128.708 17.1354 128.594 17.4375L124.844 27.375C124.625 27.9375 124.385 28.5208 124.125 29.125C123.875 29.7396 123.599 30.3385 123.297 30.9219C122.995 31.5052 122.672 32.0573 122.328 32.5781C121.984 33.099 121.62 33.5573 121.234 33.9531C120.849 34.349 120.438 34.6615 120 34.8906C119.573 35.1302 119.125 35.25 118.656 35.25Z" fill="#00A0FF"/>
</svg>
